<svg xmlns="http://www.w3.org/2000/svg" width="512" height="512" viewBox="0 0 612 612"><path d="M16.051 180.818h579.898c8.874 0 16.051-6.176 16.051-13.909 0-7.678-7.288-13.909-16.051-13.909H16.051C7.177 153 0 159.176 0 166.909c0 7.678 7.288 13.909 16.051 13.909zm0 139.091h579.898c8.874 0 16.051-6.176 16.051-13.909 0-7.678-7.288-13.909-16.051-13.909H16.051C7.177 292.091 0 298.267 0 306c0 7.678 7.288 13.909 16.051 13.909zm0 139.091h579.898c8.874 0 16.051-6.176 16.051-13.909 0-7.678-7.288-13.909-16.051-13.909H16.051C7.177 431.182 0 437.357 0 445.091 0 452.769 7.288 459 16.051 459z" fill="#7f7f7f"/></svg>