<svg xmlns="http://www.w3.org/2000/svg" viewBox="0 0 67.125 67.125" width="512" height="512"><path d="M67.125 23.902c0-12.892-10.488-23.38-23.38-23.38-12.89 0-23.379 10.488-23.379 23.38a23.258 23.258 0 0 0 5.037 14.47L.586 63.19A1.992 1.992 0 0 0 0 64.603a2 2 0 0 0 3.414 1.414L28.14 41.292c4.142 3.72 9.613 5.989 15.605 5.989 12.892 0 23.38-10.488 23.38-23.38zm-23.38-19.38c10.686 0 19.38 8.694 19.38 19.38 0 10.687-8.694 19.38-19.38 19.38-5.396 0-10.279-2.221-13.795-5.791a1.959 1.959 0 0 0-.349-.488 2.003 2.003 0 0 0-.343-.271c-3.033-3.422-4.893-7.907-4.893-12.83.001-10.686 8.695-19.38 19.38-19.38z" fill="#7f7f7f"/></svg>