<svg xmlns="http://www.w3.org/2000/svg" viewBox="-201 293.9 207.1 207.1"><path d="M-29.5 487.5c-7.5 0-13.6-6.1-13.6-13.6 0-2.8.9-5.4 2.3-7.6h-66.1c1.5 2.2 2.3 4.8 2.3 7.6 0 7.5-6.1 13.6-13.6 13.6s-13.6-6.1-13.6-13.6c0-2.8.9-5.5 2.4-7.6-6.7-.6-12.4-5.6-13.7-12.3l-22.4-111.4-3.9-19.6c-1.2-5.6-6.2-9.7-11.9-9.7H-198c-1.7 0-3-1.3-3-3s1.3-3 3-3h16.7c8.6 0 16.1 6.1 17.8 14.5l3.4 17.2H3.1c.9 0 1.7.4 2.3 1.1.6.7.8 1.6.6 2.5l-4.4 22.9v.1L-3 389.5v.1l-9 46.9c-.3 1.4-1.5 2.4-2.9 2.4H-140l2.8 13.9c.9 4.4 4.7 7.5 9.2 7.5h98.5c7.5 0 13.6 6.1 13.6 13.6s-6.2 13.6-13.6 13.6zm0-21.1c-4.2 0-7.6 3.4-7.6 7.6 0 4.2 3.4 7.6 7.6 7.6s7.6-3.4 7.6-7.6c-.1-4.2-3.5-7.6-7.6-7.6zm-88.7 0c-4.2 0-7.6 3.4-7.6 7.6 0 4.2 3.4 7.6 7.6 7.6 4.2 0 7.6-3.4 7.6-7.6 0-4.2-3.4-7.6-7.6-7.6zm88.7-33.4h12.1m-123.5 0l-3.5-17m3.5 17h123.5l16.9-87.9h-158.3l17.9 87.9z" fill="#7f7f7f"/></svg>