<?xml version="1.0" encoding="UTF-8" standalone="no"?>
<svg
   xmlns:dc="http://purl.org/dc/elements/1.1/"
   xmlns:cc="http://creativecommons.org/ns#"
   xmlns:rdf="http://www.w3.org/1999/02/22-rdf-syntax-ns#"
   xmlns:svg="http://www.w3.org/2000/svg"
   xmlns="http://www.w3.org/2000/svg"
   xmlns:sodipodi="http://sodipodi.sourceforge.net/DTD/sodipodi-0.dtd"
   xmlns:inkscape="http://www.inkscape.org/namespaces/inkscape"
   version="1.1"
   id="Capa_1"
   x="0px"
   y="0px"
   viewBox="0 0 67.125 67.125"
   style="enable-background:new 0 0 67.125 67.125;"
   xml:space="preserve"
   width="512px"
   height="512px"
   inkscape:version="0.91 r13725"
   sodipodi:docname="search.svg"><metadata
     id="metadata3598"><rdf:RDF><cc:Work
         rdf:about=""><dc:format>image/svg+xml</dc:format><dc:type
           rdf:resource="http://purl.org/dc/dcmitype/StillImage" /></cc:Work></rdf:RDF></metadata><defs
     id="defs3596" /><sodipodi:namedview
     pagecolor="#ffffff"
     bordercolor="#666666"
     borderopacity="1"
     objecttolerance="10"
     gridtolerance="10"
     guidetolerance="10"
     inkscape:pageopacity="0"
     inkscape:pageshadow="2"
     inkscape:window-width="912"
     inkscape:window-height="751"
     id="namedview3594"
     showgrid="false"
     inkscape:zoom="0.4609375"
     inkscape:cx="256"
     inkscape:cy="256"
     inkscape:window-x="251"
     inkscape:window-y="106"
     inkscape:window-maximized="0"
     inkscape:current-layer="Capa_1" /><g
     id="g3558"
     transform="matrix(0,1,-1,0,67.125375,-3.75e-4)"><g
       id="g3560"><path
         d="M 23.902,0 C 11.01,0 0.523,10.488 0.523,23.38 c 0,12.891 10.487,23.379 23.379,23.379 5.461,0 10.487,-1.887 14.471,-5.037 l 24.816,24.817 c 0.391,0.391 0.902,0.586 1.414,0.586 0.512,0 1.023,-0.195 1.414,-0.586 0.781,-0.78 0.781,-2.048 0,-2.828 L 41.292,38.985 C 45.013,34.843 47.281,29.372 47.281,23.38 47.282,10.488 36.793,0 23.902,0 Z M 4.523,23.38 C 4.523,12.694 13.216,4 23.902,4 c 10.687,0 19.38,8.694 19.38,19.38 0,5.396 -2.221,10.279 -5.791,13.795 -0.175,0.092 -0.342,0.202 -0.488,0.349 -0.105,0.105 -0.194,0.222 -0.271,0.343 C 33.31,40.9 28.825,42.76 23.903,42.76 13.216,42.759 4.523,34.065 4.523,23.38 Z"
         id="path3562"
         inkscape:connector-curvature="0"
         style="fill:#7f7f7f" /></g></g><g
     id="g3564"
     transform="matrix(0,1,-1,0,67.124999,67.124999)" /><g
     id="g3566"
     transform="matrix(0,1,-1,0,67.124999,67.124999)" /><g
     id="g3568"
     transform="matrix(0,1,-1,0,67.124999,67.124999)" /><g
     id="g3570"
     transform="matrix(0,1,-1,0,67.124999,67.124999)" /><g
     id="g3572"
     transform="matrix(0,1,-1,0,67.124999,67.124999)" /><g
     id="g3574"
     transform="matrix(0,1,-1,0,67.124999,67.124999)" /><g
     id="g3576"
     transform="matrix(0,1,-1,0,67.124999,67.124999)" /><g
     id="g3578"
     transform="matrix(0,1,-1,0,67.124999,67.124999)" /><g
     id="g3580"
     transform="matrix(0,1,-1,0,67.124999,67.124999)" /><g
     id="g3582"
     transform="matrix(0,1,-1,0,67.124999,67.124999)" /><g
     id="g3584"
     transform="matrix(0,1,-1,0,67.124999,67.124999)" /><g
     id="g3586"
     transform="matrix(0,1,-1,0,67.124999,67.124999)" /><g
     id="g3588"
     transform="matrix(0,1,-1,0,67.124999,67.124999)" /><g
     id="g3590"
     transform="matrix(0,1,-1,0,67.124999,67.124999)" /><g
     id="g3592"
     transform="matrix(0,1,-1,0,67.124999,67.124999)" /></svg>