<svg version="1.1" id="Capa_1" xmlns="http://www.w3.org/2000/svg" xmlns:xlink="http://www.w3.org/1999/xlink" x="0px" y="0px"
	 viewBox="-201 293.9 207.1 207.1" style="enable-background:new -201 293.9 207.1 207.1;" xml:space="preserve">
<path d="M-29.5,487.5c-7.5,0-13.6-6.1-13.6-13.6c0-2.8,0.9-5.4,2.3-7.6h-66.1c1.5,2.2,2.3,4.8,2.3,7.6c0,7.5-6.1,13.6-13.6,13.6
	s-13.6-6.1-13.6-13.6c0-2.8,0.9-5.5,2.4-7.6c-6.7-0.6-12.4-5.6-13.7-12.3l-22.4-111.4c0,0,0,0,0,0l-3.9-19.6
	c-1.2-5.6-6.2-9.7-11.9-9.7H-198c-1.7,0-3-1.3-3-3s1.3-3,3-3h16.7c8.6,0,16.1,6.1,17.8,14.5l3.4,17.2h29.7c0,0,0,0,0,0h33.9
	c0,0,0,0,0,0h34.9c0,0,0,0,0,0h33.9c0,0,0,0,0,0H3.1c0.9,0,1.7,0.4,2.3,1.1c0.6,0.7,0.8,1.6,0.6,2.5l-4.4,22.9c0,0,0,0.1,0,0.1
	L-3,389.5c0,0,0,0.1,0,0.1l-9,46.9c-0.3,1.4-1.5,2.4-2.9,2.4h-17.7c0,0,0,0,0,0h-92.6c0,0,0,0,0,0H-140l2.8,13.9
	c0.9,4.4,4.7,7.5,9.2,7.5h98.5c7.5,0,13.6,6.1,13.6,13.6S-22.1,487.5-29.5,487.5z M-29.5,466.4c-4.2,0-7.6,3.4-7.6,7.6
	c0,4.2,3.4,7.6,7.6,7.6s7.6-3.4,7.6-7.6C-22,469.8-25.4,466.4-29.5,466.4z M-118.2,466.4c-4.2,0-7.6,3.4-7.6,7.6
	c0,4.2,3.4,7.6,7.6,7.6c4.2,0,7.6-3.4,7.6-7.6C-110.6,469.8-114,466.4-118.2,466.4z M-29.5,433h12.1 M-140.9,433l-3.5-17
	 M-154.2,368.1 M-140.9,433h123.5l16.9-87.9h-158.3L-140.9,433z" fill="#7f7f7f"/>
</svg>
